<svg width="61" height="61" viewBox="0 0 61 61" fill="none" xmlns="http://www.w3.org/2000/svg">
<path d="M30.33 60.6598C13.6059 60.6598 0 47.0539 0 30.33C0 13.6061 13.6059 0 30.33 0C47.054 0 60.6598 13.6059 60.6598 30.33C60.6598 47.054 47.0539 60.6598 30.33 60.6598Z" fill="#FDBF00"/>
<path d="M30.3301 0V60.6598C47.054 60.6598 60.6599 47.0539 60.6599 30.3299C60.6599 13.6058 47.054 0 30.3301 0Z" fill="#FDBF00"/>
<path d="M30.3308 53.5512C17.5265 53.5512 7.10938 43.1341 7.10938 30.3297C7.10938 17.5254 17.5265 7.1084 30.3308 7.1084C43.1352 7.1084 53.5523 17.5255 53.5523 30.3298C53.5523 43.1342 43.135 53.5512 30.3308 53.5512Z" fill="#FFDE46"/>
<path d="M30.3301 7.1084V53.5512C43.1344 53.5512 53.5515 43.1341 53.5515 30.3297C53.5515 17.5254 43.1343 7.1084 30.3301 7.1084Z" fill="#FFDE46"/>
<path d="M39.0069 39.3896H21.6154C21.2285 39.3896 20.8522 39.2633 20.5436 39.03C20.235 38.7967 20.011 38.469 19.9055 38.0968L16.6219 26.5058C16.5361 26.2027 16.5324 25.8823 16.6111 25.5773C16.6898 25.2724 16.8481 24.9938 17.0699 24.7701C17.2917 24.5465 17.5689 24.3858 17.8732 24.3045C18.1775 24.2232 18.4979 24.2242 18.8017 24.3074L24.177 25.781L28.9234 19.6457C29.0895 19.431 29.3026 19.2573 29.5462 19.1378C29.7899 19.0182 30.0577 18.9561 30.3291 18.9561C30.6005 18.9561 30.8682 19.0182 31.1119 19.1378C31.3555 19.2573 31.5686 19.431 31.7347 19.6457L36.4811 25.781L41.8562 24.3074C42.1604 24.224 42.4813 24.223 42.786 24.3046C43.0907 24.3861 43.3682 24.5474 43.59 24.7717C43.8117 24.996 43.9698 25.2753 44.0479 25.5809C44.1261 25.8865 44.1214 26.2074 44.0345 26.5106L40.7155 38.1016C40.6092 38.4727 40.385 38.7992 40.0767 39.0315C39.7685 39.2639 39.393 39.3896 39.0069 39.3896Z" fill="#FF961E"/>
<path d="M43.5908 24.772C43.369 24.5477 43.0916 24.3865 42.7869 24.3049C42.4823 24.2233 42.1614 24.2242 41.8572 24.3076L36.4821 25.7812L31.7357 19.6458C31.5696 19.4312 31.3566 19.2574 31.1129 19.1378C30.8693 19.0182 30.6015 18.9561 30.3301 18.9561V39.3896H39.0082C39.3942 39.3896 39.7697 39.2639 40.078 39.0315C40.3862 38.7992 40.6104 38.4727 40.7166 38.1016L44.0357 26.5106C44.1224 26.2074 44.127 25.8866 44.0488 25.581C43.9706 25.2755 43.8125 24.9963 43.5908 24.772Z" fill="#FF961E"/>
</svg>
