<svg width="1300" height="582" viewBox="0 0 1300 582" fill="none" xmlns="http://www.w3.org/2000/svg">
<g filter="url(#filter0_d_175_1940)">
<path d="M0 0H1296V557C1296 568.598 1286.6 578 1275 578H628.547C621.086 578 614.185 574.041 610.419 567.601L572.581 502.899C568.815 496.459 561.914 492.5 554.453 492.5H0V0Z" fill="#86B1EE"/>
<path d="M0 0H1296V557C1296 568.598 1286.6 578 1275 578H628.547C621.086 578 614.185 574.041 610.419 567.601L572.581 502.899C568.815 496.459 561.914 492.5 554.453 492.5H0V0Z" fill="url(#paint0_linear_175_1940)"/>
</g>
<defs>
<filter id="filter0_d_175_1940" x="0" y="0" width="1300" height="582" filterUnits="userSpaceOnUse" color-interpolation-filters="sRGB">
<feFlood flood-opacity="0" result="BackgroundImageFix"/>
<feColorMatrix in="SourceAlpha" type="matrix" values="0 0 0 0 0 0 0 0 0 0 0 0 0 0 0 0 0 0 127 0" result="hardAlpha"/>
<feOffset dx="4" dy="4"/>
<feComposite in2="hardAlpha" operator="out"/>
<feColorMatrix type="matrix" values="0 0 0 0 0.196078 0 0 0 0 0.447059 0 0 0 0 0.619608 0 0 0 1 0"/>
<feBlend mode="normal" in2="BackgroundImageFix" result="effect1_dropShadow_175_1940"/>
<feBlend mode="normal" in="SourceGraphic" in2="effect1_dropShadow_175_1940" result="shape"/>
</filter>
<linearGradient id="paint0_linear_175_1940" x1="580" y1="232.169" x2="1129.44" y2="770.304" gradientUnits="userSpaceOnUse">
<stop stop-color="#5398C4"/>
<stop offset="1" stop-color="#7FC8E1"/>
</linearGradient>
</defs>
</svg>
