<svg width="68" height="55" viewBox="0 0 68 55" fill="none" xmlns="http://www.w3.org/2000/svg">
<path d="M68 18.3189C68 37.8456 43.5624 50.7292 36.125 54.1515C34.8501 54.7554 33.1501 54.7554 31.8751 54.1515C24.4376 50.7292 0 38.2482 0 18.3189C0 8.25355 7.86247 0 17.425 0C25.075 0 31.45 5.03272 33.7875 12.0783C36.1249 5.03258 42.7124 0 50.15 0C60.1375 0 68 8.25355 68 18.3189Z" fill="#E24C4B"/>
<path d="M67.9953 18.3189C67.9953 37.8456 43.5578 50.7292 36.1204 54.1515C34.8454 54.7554 33.1454 54.7554 31.6578 54.1515C28.2578 52.7423 21.8829 49.3202 15.5078 44.4887H15.7203C35.9078 44.4887 52.0578 28.9881 52.0578 10.0653C52.0578 6.64307 51.4202 3.22082 50.3578 0C60.3453 0.201275 67.9953 8.25355 67.9953 18.3189Z" fill="#D1403F"/>
<g opacity="0.2">
<path d="M16.3629 15.2989C12.9629 16.1042 9.77541 14.8964 9.13786 12.6819C8.71292 10.2662 10.8379 7.85047 14.238 7.04523C17.638 6.23999 20.8255 7.44778 21.463 9.66223C22.1004 12.078 19.763 14.4937 16.3629 15.2989Z" fill="white"/>
</g>
</svg>
