<svg width="1297" height="587" viewBox="0 0 1297 587" fill="none" xmlns="http://www.w3.org/2000/svg">
<g clip-path="url(#clip0_178_1948)">
<rect width="1297" height="587" fill="white"/>
<g filter="url(#filter0_d_178_1948)">
<path d="M1 0H1297V557C1297 568.598 1287.6 578 1276 578H629.547C622.086 578 615.185 574.041 611.419 567.601L573.581 502.899C569.815 496.459 562.914 492.5 555.453 492.5H1V0Z" fill="#86B1EE"/>
<path d="M1 0H1297V557C1297 568.598 1287.6 578 1276 578H629.547C622.086 578 615.185 574.041 611.419 567.601L573.581 502.899C569.815 496.459 562.914 492.5 555.453 492.5H1V0Z" fill="url(#paint0_linear_178_1948)"/>
</g>
</g>
<defs>
<filter id="filter0_d_178_1948" x="1" y="0" width="1300" height="582" filterUnits="userSpaceOnUse" color-interpolation-filters="sRGB">
<feFlood flood-opacity="0" result="BackgroundImageFix"/>
<feColorMatrix in="SourceAlpha" type="matrix" values="0 0 0 0 0 0 0 0 0 0 0 0 0 0 0 0 0 0 127 0" result="hardAlpha"/>
<feOffset dx="4" dy="4"/>
<feComposite in2="hardAlpha" operator="out"/>
<feColorMatrix type="matrix" values="0 0 0 0 0.196078 0 0 0 0 0.447059 0 0 0 0 0.619608 0 0 0 1 0"/>
<feBlend mode="normal" in2="BackgroundImageFix" result="effect1_dropShadow_178_1948"/>
<feBlend mode="normal" in="SourceGraphic" in2="effect1_dropShadow_178_1948" result="shape"/>
</filter>
<linearGradient id="paint0_linear_178_1948" x1="581" y1="232.169" x2="1130.44" y2="770.304" gradientUnits="userSpaceOnUse">
<stop stop-color="#5398C4"/>
<stop offset="1" stop-color="#7FC8E1"/>
</linearGradient>
<clipPath id="clip0_178_1948">
<rect width="1297" height="587" fill="white"/>
</clipPath>
</defs>
</svg>
