<svg width="60" height="60" viewBox="0 0 60 60" fill="none" xmlns="http://www.w3.org/2000/svg">
<path d="M29.583 59.7084C45.9213 59.7084 59.1661 46.3422 59.1661 29.8542C59.1661 13.3662 45.9213 0 29.583 0C13.2448 0 0 13.3662 0 29.8542C0 46.3422 13.2448 59.7084 29.583 59.7084Z" fill="#FFCD00"/>
<path fill-rule="evenodd" clip-rule="evenodd" d="M29.5864 59.7082C25.6635 59.7082 21.9012 58.1355 19.1273 55.3361C16.3533 52.5368 14.7949 48.74 14.7949 44.7811C14.7949 40.8222 16.3533 37.0254 19.1273 34.226C21.9012 31.4267 25.6635 29.854 29.5864 29.854H59.1695C59.1695 37.7718 56.0527 45.3654 50.5048 50.9641C44.9569 56.5628 37.4324 59.7082 29.5864 59.7082Z" fill="#FFB400"/>
<path fill-rule="evenodd" clip-rule="evenodd" d="M29.583 0C33.506 0 37.2683 1.57267 40.0422 4.37204C42.8162 7.17142 44.3746 10.9682 44.3746 14.9271C44.3746 18.886 42.8162 22.6828 40.0422 25.4821C37.2683 28.2815 33.506 29.8542 29.583 29.8542H0C0 21.9364 3.11678 14.3428 8.66467 8.74409C14.2126 3.14534 21.7371 0 29.583 0Z" fill="#FFEB00"/>
<path fill-rule="evenodd" clip-rule="evenodd" d="M11.0957 29.8559L48.0745 29.854C48.0775 32.5016 47.5209 35.1194 46.4416 37.5326C45.3623 39.9459 43.7853 42.099 41.8158 43.8482H17.3544C17.0653 43.5913 16.784 43.3248 16.5103 43.0486C14.7936 41.3161 13.4319 39.2593 12.5028 36.9957C11.5738 34.7321 11.0956 32.306 11.0957 29.8559Z" fill="#46321E"/>
<path fill-rule="evenodd" clip-rule="evenodd" d="M17.3544 43.848C18.7097 41.8348 20.5328 40.187 22.6645 39.0487C24.7962 37.9103 27.1716 37.3159 29.5833 37.3174H29.587C31.9988 37.3157 34.3744 37.9099 36.5062 39.0481C38.638 40.1864 40.4613 41.834 41.8168 43.8471C38.4423 46.8596 34.0906 48.5195 29.5852 48.5127H29.5833C25.0798 48.5129 20.7311 46.8542 17.3535 43.848H17.3544Z" fill="#E24C4B"/>
<path d="M51.0496 20.6572L48.0756 29.8952L40.2888 24.1865H30.6632L33.6381 14.9476L30.6632 5.71054H40.2888L48.0756 0L51.0496 9.23894L58.8364 14.9476L51.0496 20.6572ZM8.12275 20.6572L11.0968 29.8952L18.8836 24.1865H28.5101L25.5342 14.9476L28.5101 5.71054H18.8836L11.0968 0L8.12275 9.23894L0.335938 14.9476L8.12275 20.6572Z" fill="#FF961E"/>
</svg>
