<svg width="269" height="269" viewBox="0 0 269 269" fill="none" xmlns="http://www.w3.org/2000/svg">
<g filter="url(#filter0_d_154_2093)">
<rect width="260.797" height="260.797" rx="25.7366" fill="#9DE6FF"/>
<path d="M86.5 159C127.093 159 160 126.093 160 85.5C160 44.9071 127.093 12 86.5 12C45.9071 12 13 44.9071 13 85.5C13 126.093 45.9071 159 86.5 159Z" fill="#B7EDFF"/>
<path d="M91 252C116.405 252 137 231.405 137 206C137 180.595 116.405 160 91 160C65.5949 160 45 180.595 45 206C45 231.405 65.5949 252 91 252Z" fill="#B7EDFF"/>
<path d="M30.5 206C42.9264 206 53 195.926 53 183.5C53 171.074 42.9264 161 30.5 161C18.0736 161 8 171.074 8 183.5C8 195.926 18.0736 206 30.5 206Z" fill="#B7EDFF"/>
<path d="M233 113C239.075 113 244 108.075 244 102C244 95.9249 239.075 91 233 91C226.925 91 222 95.9249 222 102C222 108.075 226.925 113 233 113Z" fill="#B7EDFF"/>
<path d="M18.5 154C22.6421 154 26 150.642 26 146.5C26 142.358 22.6421 139 18.5 139C14.3579 139 11 142.358 11 146.5C11 150.642 14.3579 154 18.5 154Z" fill="#B7EDFF"/>
<path d="M202 86C223.539 86 241 68.5391 241 47C241 25.4609 223.539 8 202 8C180.461 8 163 25.4609 163 47C163 68.5391 180.461 86 202 86Z" fill="#B7EDFF"/>
<path d="M88.7314 206.463C99.6287 206.463 108.463 197.629 108.463 186.731C108.463 175.834 99.6287 167 88.7314 167C77.834 167 69 175.834 69 186.731C69 197.629 77.834 206.463 88.7314 206.463Z" fill="#D1FFFF"/>
<path d="M171.149 240.682C204.92 249.731 239.633 229.689 248.682 195.918C257.731 162.147 237.689 127.434 203.918 118.385C170.147 109.336 135.434 129.377 126.385 163.149C117.336 196.92 137.377 231.633 171.149 240.682Z" fill="#B7EDFF"/>
<path d="M206.936 25.7354H72.5467C69.9741 25.7354 67.8887 27.8208 67.8887 30.3934V131.188L78.6124 126.425C79.5124 126.025 80.4677 125.822 81.4524 125.822C82.4372 125.822 83.3925 126.025 84.2925 126.425L124.817 144.426C126.054 144.976 127.105 145.872 127.842 147.007C128.58 148.142 128.973 149.466 128.973 150.819V180.336C128.973 186.553 128.236 192.249 126.763 197.488C127.767 198.161 128.703 198.93 129.558 199.785L133.385 203.612L137.212 199.785C140.688 196.309 145.33 194.395 150.281 194.395C155.233 194.395 159.874 196.309 163.351 199.785C167.309 203.743 169.088 209.065 168.698 214.253H206.935C209.508 214.253 211.593 212.167 211.593 209.595V30.3934C211.594 27.8208 209.509 25.7354 206.936 25.7354Z" fill="white"/>
<path d="M78.6129 126.425C79.5128 126.025 80.4682 125.822 81.4529 125.822C82.4376 125.822 83.393 126.025 84.2929 126.425L86.5209 127.414V30.3934C86.5209 27.8208 88.6063 25.7354 91.1789 25.7354H72.5467C69.9741 25.7354 67.8887 27.8208 67.8887 30.3934V131.188L78.6129 126.425Z" fill="white"/>
<path d="M182.843 96.8152H96.6381C94.7087 96.8152 93.1445 95.2515 93.1445 93.3217C93.1445 91.3918 94.7087 89.8281 96.6381 89.8281H182.843C184.772 89.8281 186.336 91.3918 186.336 93.3217C186.336 95.2515 184.773 96.8152 182.843 96.8152ZM182.843 110.849H96.6381C94.7087 110.849 93.1445 109.285 93.1445 107.355C93.1445 105.426 94.7087 103.862 96.6381 103.862H182.843C184.772 103.862 186.336 105.426 186.336 107.355C186.336 109.285 184.773 110.849 182.843 110.849ZM182.843 124.883H96.6381C94.7087 124.883 93.1445 123.319 93.1445 121.389C93.1445 119.459 94.7087 117.896 96.6381 117.896H182.843C184.772 117.896 186.336 119.459 186.336 121.389C186.336 123.319 184.773 124.883 182.843 124.883Z" fill="#3E5FDB"/>
<path d="M182.843 150.944H140.542C138.613 150.944 137.049 149.38 137.049 147.45C137.049 145.52 138.613 143.956 140.542 143.956H182.843C184.772 143.956 186.336 145.52 186.336 147.45C186.336 149.38 184.773 150.944 182.843 150.944ZM182.843 65.3869H140.542C138.613 65.3869 137.049 63.8232 137.049 61.8933C137.049 59.9635 138.613 58.3998 140.542 58.3998H182.843C184.772 58.3998 186.336 59.9635 186.336 61.8933C186.336 63.8232 184.773 65.3869 182.843 65.3869ZM182.843 164.977H140.542C138.613 164.977 137.049 163.414 137.049 161.484C137.049 159.554 138.613 157.99 140.542 157.99H182.843C184.772 157.99 186.336 159.554 186.336 161.484C186.336 163.414 184.773 164.977 182.843 164.977ZM182.843 179.011H140.542C138.613 179.011 137.049 177.447 137.049 175.518C137.049 173.588 138.613 172.024 140.542 172.024H182.843C184.772 172.024 186.336 173.588 186.336 175.518C186.336 177.447 184.773 179.011 182.843 179.011ZM107.658 55.3483H101.714C101.294 55.3478 100.892 55.181 100.596 54.8844C100.299 54.5879 100.132 54.1858 100.132 53.7664V52.0294C100.132 51.6101 100.299 51.208 100.596 50.9114C100.892 50.6149 101.294 50.4481 101.714 50.4476H111.589C113.518 50.4476 115.082 48.8839 115.082 46.954C115.082 45.0242 113.518 43.4605 111.589 43.4605H108.179V43.1097C108.179 41.1799 106.615 39.6162 104.686 39.6162C102.757 39.6162 101.192 41.1799 101.192 43.1097V43.487C96.7104 43.7586 93.1447 47.4804 93.1447 52.0294V53.7664C93.1447 58.4916 96.9885 62.3354 101.714 62.3354H107.658C108.078 62.3359 108.48 62.5027 108.776 62.7992C109.073 63.0958 109.24 63.4979 109.24 63.9172V65.6547C109.24 66.0741 109.073 66.4762 108.776 66.7727C108.48 67.0693 108.078 67.2361 107.658 67.2366H97.5549C95.6256 67.2366 94.0614 68.8003 94.0614 70.7301C94.0614 72.6599 95.6256 74.2236 97.5549 74.2236H101.192V75.0844C101.192 77.0143 102.757 78.578 104.686 78.578C106.615 78.578 108.179 77.0143 108.179 75.0844V74.1976C112.661 73.926 116.227 70.2042 116.227 65.6552V63.9182C116.227 59.1926 112.383 55.3483 107.658 55.3483ZM103.008 225.49H88.4014C86.732 225.49 85.3737 224.131 85.3737 222.462C85.3737 220.792 86.732 219.434 88.4014 219.434H99.2234C96.7207 212.838 98.1158 205.088 103.419 199.784C106.896 196.308 111.537 194.394 116.489 194.394C120.385 194.394 124.087 195.584 127.183 197.783C128.656 192.59 129.439 186.814 129.439 180.335V150.819C129.439 147.869 127.702 145.196 125.006 143.999L84.4812 125.999C83.5275 125.575 82.4956 125.356 81.4521 125.356C80.4085 125.356 79.3766 125.575 78.4229 125.999L37.8979 143.999C36.5785 144.585 35.4574 145.541 34.6705 146.752C33.8837 147.962 33.4649 149.375 33.4648 150.819V180.335C33.4648 211.762 51.8432 226.677 78.4374 238.478C79.3868 238.899 80.4138 239.116 81.4523 239.116C82.4908 239.116 83.5178 238.899 84.4672 238.478C92.01 235.131 98.8909 231.532 104.88 227.379L103.419 225.922C103.278 225.781 103.144 225.634 103.008 225.49Z" fill="#3E5FDB"/>
<path d="M93.4433 233.889C65.6799 221.568 46.4934 205.998 46.4934 173.189V142.375C46.4934 141.561 46.6234 140.769 46.8614 140.02L37.8979 144.001C36.5785 144.587 35.4574 145.543 34.6705 146.754C33.8837 147.964 33.4649 149.377 33.4648 150.821V180.337C33.4648 211.764 51.8432 226.679 78.4374 238.48C79.3868 238.901 80.4138 239.118 81.4523 239.118C82.4908 239.118 83.5178 238.901 84.4672 238.48C87.6985 237.046 90.8073 235.565 93.7777 234.016C93.6664 233.973 93.5527 233.937 93.4433 233.889Z" fill="#3E5FDB"/>
<path d="M104.386 170.62H91.3149V157.549C91.3149 156.931 91.0695 156.339 90.6327 155.902C90.1959 155.465 89.6035 155.22 88.9858 155.22H73.9185C73.3008 155.22 72.7084 155.465 72.2716 155.902C71.8348 156.339 71.5894 156.931 71.5894 157.549V170.62H58.5185C57.9008 170.62 57.3084 170.865 56.8716 171.302C56.4348 171.739 56.1895 172.331 56.1895 172.949V188.016C56.1895 188.634 56.4348 189.226 56.8716 189.663C57.3084 190.1 57.9008 190.345 58.5185 190.345H71.5894V203.416C71.5894 204.034 71.8348 204.626 72.2716 205.063C72.7084 205.5 73.3008 205.745 73.9185 205.745H88.9858C89.6035 205.745 90.1959 205.5 90.6327 205.063C91.0695 204.626 91.3149 204.034 91.3149 203.416V190.345H104.386C105.004 190.345 105.596 190.1 106.033 189.663C106.469 189.226 106.715 188.634 106.715 188.016V172.949C106.715 172.331 106.469 171.739 106.033 171.302C105.596 170.865 105.004 170.62 104.386 170.62Z" fill="white"/>
<path d="M79.8188 199.844C79.2011 199.844 78.6087 199.598 78.1719 199.162C77.7352 198.725 77.4898 198.132 77.4898 197.515V186.773C77.4898 186.155 77.2444 185.563 76.8076 185.126C76.3708 184.689 75.7784 184.444 75.1608 184.444H64.4188C63.8011 184.444 63.2087 184.198 62.772 183.762C62.3352 183.325 62.0898 182.732 62.0898 182.115V170.618H58.5185C57.9008 170.618 57.3084 170.864 56.8716 171.3C56.4348 171.737 56.1895 172.329 56.1895 172.947V188.015C56.1895 188.632 56.4348 189.225 56.8716 189.661C57.3084 190.098 57.9008 190.344 58.5185 190.344H71.5894V203.415C71.5894 204.032 71.8348 204.625 72.2716 205.061C72.7084 205.498 73.3008 205.744 73.9184 205.744H88.9858C89.6035 205.744 90.1959 205.498 90.6327 205.061C91.0695 204.625 91.3149 204.032 91.3149 203.415V199.843H79.8188V199.844Z" fill="#EAF6FF"/>
<path d="M146.602 229.766C146.071 229.765 145.55 229.625 145.09 229.36C144.63 229.095 144.248 228.714 143.981 228.255L139.494 220.504L132.484 236.031C132.246 236.563 131.858 237.015 131.368 237.331C130.878 237.647 130.307 237.814 129.724 237.813C129.193 237.812 128.672 237.672 128.212 237.407C127.752 237.141 127.37 236.76 127.104 236.301L120.854 225.49H102.371C102.604 225.751 102.844 226.006 103.091 226.253C113.637 236.774 126.437 249.521 131.263 254.285C131.851 254.866 132.619 255.157 133.386 255.157C134.154 255.157 134.921 254.866 135.51 254.285C139.81 250.04 150.436 239.462 160.16 229.765H146.602V229.766Z" fill="#D9434E"/>
<path d="M122.598 219.435C123.129 219.436 123.651 219.576 124.111 219.842C124.571 220.107 124.953 220.488 125.219 220.948L129.391 228.163L136.399 212.64C136.627 212.132 136.991 211.697 137.451 211.383C137.912 211.069 138.45 210.889 139.006 210.862C139.562 210.834 140.115 210.959 140.604 211.225C141.093 211.491 141.5 211.887 141.779 212.369L148.346 223.71H165.806C170.975 216.324 170.27 206.048 163.679 199.456C160.114 195.893 155.356 193.93 150.28 193.93C145.204 193.93 140.446 195.893 136.881 199.456L133.384 202.954L129.886 199.456C126.321 195.893 121.563 193.93 116.487 193.93C111.411 193.93 106.653 195.893 103.089 199.456C97.6954 204.85 96.2435 212.709 98.7239 219.435H122.598Z" fill="#ED5466"/>
<path d="M112.927 225.491H102.368C102.601 225.752 102.841 226.006 103.089 226.254C113.634 236.774 126.434 249.522 131.26 254.285C131.849 254.867 132.616 255.157 133.384 255.157C134.151 255.157 134.918 254.866 135.507 254.285C136.339 253.465 137.411 252.403 138.663 251.161C132.646 245.192 122.376 234.962 113.647 226.254C113.4 226.006 113.16 225.752 112.927 225.491ZM109.282 219.435C106.802 212.709 108.254 204.85 113.647 199.456C115.902 197.196 118.696 195.548 121.766 194.67C120.05 194.178 118.273 193.929 116.487 193.93C111.411 193.93 106.653 195.893 103.089 199.456C97.6954 204.85 96.2435 212.709 98.7239 219.435H109.282Z" fill="#D9434E"/>
<path d="M129.722 238.279C129.11 238.278 128.508 238.117 127.977 237.811C127.446 237.505 127.005 237.064 126.699 236.534L120.583 225.956H88.3998C86.4704 225.956 84.9062 224.392 84.9062 222.463C84.9062 220.533 86.4704 218.969 88.3998 218.969H122.598C123.211 218.969 123.813 219.13 124.344 219.437C124.875 219.743 125.316 220.183 125.623 220.714L129.34 227.143L135.975 212.448C136.239 211.862 136.66 211.361 137.19 210.999C137.721 210.637 138.341 210.429 138.983 210.396C139.625 210.363 140.263 210.507 140.828 210.814C141.393 211.121 141.862 211.578 142.183 212.135L148.615 223.244H170.334C172.264 223.244 173.828 224.808 173.828 226.738C173.828 228.668 172.264 230.231 170.334 230.231H146.601C145.988 230.231 145.386 230.07 144.856 229.764C144.325 229.458 143.884 229.018 143.577 228.488L139.544 221.523L132.907 236.223C132.63 236.836 132.183 237.356 131.618 237.72C131.053 238.085 130.395 238.279 129.722 238.279Z" fill="white"/>
</g>
<defs>
<filter id="filter0_d_154_2093" x="0" y="0" width="268.797" height="268.797" filterUnits="userSpaceOnUse" color-interpolation-filters="sRGB">
<feFlood flood-opacity="0" result="BackgroundImageFix"/>
<feColorMatrix in="SourceAlpha" type="matrix" values="0 0 0 0 0 0 0 0 0 0 0 0 0 0 0 0 0 0 127 0" result="hardAlpha"/>
<feMorphology radius="4" operator="dilate" in="SourceAlpha" result="effect1_dropShadow_154_2093"/>
<feOffset dx="4" dy="4"/>
<feComposite in2="hardAlpha" operator="out"/>
<feColorMatrix type="matrix" values="0 0 0 0 0.196078 0 0 0 0 0.447059 0 0 0 0 0.619608 0 0 0 1 0"/>
<feBlend mode="normal" in2="BackgroundImageFix" result="effect1_dropShadow_154_2093"/>
<feBlend mode="normal" in="SourceGraphic" in2="effect1_dropShadow_154_2093" result="shape"/>
</filter>
</defs>
</svg>
