<svg width="61" height="61" viewBox="0 0 61 61" fill="none" xmlns="http://www.w3.org/2000/svg">
<path d="M30.33 60.6598C13.6059 60.6598 0 47.0539 0 30.33C0 13.6061 13.6059 0 30.33 0C47.054 0 60.6598 13.6059 60.6598 30.33C60.6598 47.054 47.0539 60.6598 30.33 60.6598Z" fill="#1A5378"/>
<path d="M30.3301 0V60.6598C47.054 60.6598 60.6599 47.0539 60.6599 30.3299C60.6599 13.6058 47.054 0 30.3301 0Z" fill="#1A5378"/>
<path d="M30.3308 53.5512C17.5265 53.5512 7.10938 43.1341 7.10938 30.3297C7.10938 17.5254 17.5265 7.1084 30.3308 7.1084C43.1352 7.1084 53.5523 17.5255 53.5523 30.3298C53.5523 43.1342 43.135 53.5512 30.3308 53.5512Z" fill="#32729E"/>
<path d="M30.3301 7.1084V53.5512C43.1344 53.5512 53.5515 43.1341 53.5515 30.3297C53.5515 17.5254 43.1343 7.1084 30.3301 7.1084Z" fill="#32729E"/>
<path d="M39.0069 39.3901H21.6154C21.2285 39.3901 20.8522 39.2638 20.5436 39.0305C20.235 38.7972 20.011 38.4695 19.9055 38.0973L16.6219 26.5063C16.5361 26.2032 16.5324 25.8828 16.6111 25.5778C16.6898 25.2729 16.8481 24.9943 17.0699 24.7706C17.2917 24.547 17.5689 24.3863 17.8732 24.305C18.1775 24.2236 18.4979 24.2247 18.8017 24.3079L24.177 25.7815L28.9234 19.6462C29.0895 19.4315 29.3026 19.2578 29.5462 19.1382C29.7899 19.0187 30.0577 18.9565 30.3291 18.9565C30.6005 18.9565 30.8682 19.0187 31.1119 19.1382C31.3555 19.2578 31.5686 19.4315 31.7347 19.6462L36.4811 25.7815L41.8562 24.3079C42.1604 24.2244 42.4813 24.2235 42.786 24.305C43.0907 24.3866 43.3682 24.5479 43.59 24.7722C43.8117 24.9965 43.9698 25.2758 44.0479 25.5814C44.1261 25.887 44.1214 26.2079 44.0345 26.5111L40.7155 38.1021C40.6092 38.4732 40.385 38.7996 40.0767 39.032C39.7685 39.2644 39.393 39.3901 39.0069 39.3901Z" fill="#69A3C9"/>
<path d="M43.5908 24.7725C43.369 24.5482 43.0916 24.387 42.7869 24.3054C42.4823 24.2238 42.1614 24.2247 41.8572 24.308L36.4821 25.7817L31.7357 19.6463C31.5696 19.4317 31.3566 19.2579 31.1129 19.1383C30.8693 19.0187 30.6015 18.9566 30.3301 18.9565V39.3901H39.0082C39.3942 39.3901 39.7697 39.2644 40.078 39.032C40.3862 38.7996 40.6104 38.4732 40.7166 38.1021L44.0357 26.5111C44.1224 26.2079 44.127 25.8871 44.0488 25.5815C43.9706 25.276 43.8125 24.9968 43.5908 24.7725Z" fill="#69A3C9"/>
</svg>
